%TF.GenerationSoftware,KiCad,Pcbnew,9.0.6*%
%TF.CreationDate,2025-11-29T13:29:23+01:00*%
%TF.ProjectId,AMN_230V_pcb,414d4e5f-3233-4305-965f-7063622e6b69,rev?*%
%TF.SameCoordinates,Original*%
%TF.FileFunction,Soldermask,Bot*%
%TF.FilePolarity,Negative*%
%FSLAX46Y46*%
G04 Gerber Fmt 4.6, Leading zero omitted, Abs format (unit mm)*
G04 Created by KiCad (PCBNEW 9.0.6) date 2025-11-29 13:29:23*
%MOMM*%
%LPD*%
G01*
G04 APERTURE LIST*
G04 Aperture macros list*
%AMRoundRect*
0 Rectangle with rounded corners*
0 $1 Rounding radius*
0 $2 $3 $4 $5 $6 $7 $8 $9 X,Y pos of 4 corners*
0 Add a 4 corners polygon primitive as box body*
4,1,4,$2,$3,$4,$5,$6,$7,$8,$9,$2,$3,0*
0 Add four circle primitives for the rounded corners*
1,1,$1+$1,$2,$3*
1,1,$1+$1,$4,$5*
1,1,$1+$1,$6,$7*
1,1,$1+$1,$8,$9*
0 Add four rect primitives between the rounded corners*
20,1,$1+$1,$2,$3,$4,$5,0*
20,1,$1+$1,$4,$5,$6,$7,0*
20,1,$1+$1,$6,$7,$8,$9,0*
20,1,$1+$1,$8,$9,$2,$3,0*%
G04 Aperture macros list end*
%ADD10C,3.500000*%
%ADD11C,2.000000*%
%ADD12R,1.778000X1.778000*%
%ADD13C,1.778000*%
%ADD14C,1.900000*%
%ADD15C,1.800000*%
%ADD16R,1.700000X1.700000*%
%ADD17C,1.700000*%
%ADD18RoundRect,0.249999X0.790001X1.550001X-0.790001X1.550001X-0.790001X-1.550001X0.790001X-1.550001X0*%
%ADD19O,2.080000X3.600000*%
%ADD20RoundRect,0.250000X0.650000X1.550000X-0.650000X1.550000X-0.650000X-1.550000X0.650000X-1.550000X0*%
%ADD21O,1.800000X3.600000*%
%ADD22C,2.100000*%
%ADD23C,1.500000*%
G04 APERTURE END LIST*
D10*
%TO.C,H3*%
X145350000Y-119350000D03*
%TD*%
D11*
%TO.C,F2*%
X120310000Y-117650000D03*
X125390000Y-117650000D03*
%TD*%
D12*
%TO.C,K3*%
X79922500Y-66997500D03*
D13*
X79922500Y-69537500D03*
D14*
X79922500Y-77157500D03*
X79922500Y-84777500D03*
%TD*%
D15*
%TO.C,V3*%
X101100000Y-126700000D03*
X102500000Y-119200000D03*
%TD*%
D10*
%TO.C,H1*%
X67350000Y-83350000D03*
%TD*%
D16*
%TO.C,J5*%
X132850000Y-61850000D03*
D17*
X130310000Y-61850000D03*
X132850000Y-64390000D03*
X130310000Y-64390000D03*
X132850000Y-66930000D03*
X130310000Y-66930000D03*
X132850000Y-69470000D03*
X130310000Y-69470000D03*
%TD*%
D11*
%TO.C,F1*%
X114240000Y-117550000D03*
X109160000Y-117550000D03*
%TD*%
D15*
%TO.C,V2*%
X132700000Y-127600000D03*
X125200000Y-126200000D03*
%TD*%
D18*
%TO.C,J2*%
X111550000Y-137000000D03*
D19*
X106470000Y-137000000D03*
X101390000Y-137000000D03*
%TD*%
D20*
%TO.C,J6*%
X74800000Y-106950000D03*
D21*
X71300000Y-106950000D03*
X67800000Y-106950000D03*
X64300000Y-106950000D03*
%TD*%
D10*
%TO.C,H4*%
X67350000Y-119350000D03*
%TD*%
D12*
%TO.C,K2*%
X149150000Y-92470000D03*
D13*
X149150000Y-95010000D03*
D14*
X149150000Y-102630000D03*
X149150000Y-110250000D03*
%TD*%
D15*
%TO.C,V1*%
X115550000Y-127650000D03*
X108050000Y-126250000D03*
%TD*%
D18*
%TO.C,J3*%
X132750000Y-137000000D03*
D19*
X127670000Y-137000000D03*
X122590000Y-137000000D03*
%TD*%
D22*
%TO.C,T1*%
X100650000Y-103850000D03*
X120650000Y-103850000D03*
D23*
X105650000Y-83850000D03*
X115650000Y-83850000D03*
%TD*%
D18*
%TO.C,J1*%
X90250000Y-137050000D03*
D19*
X85170000Y-137050000D03*
X80090000Y-137050000D03*
%TD*%
D10*
%TO.C,H2*%
X145350000Y-83350000D03*
%TD*%
D20*
%TO.C,J4*%
X74950000Y-93650000D03*
D21*
X71450000Y-93650000D03*
X67950000Y-93650000D03*
X64450000Y-93650000D03*
%TD*%
D12*
%TO.C,K1*%
X137872500Y-92470000D03*
D13*
X137872500Y-95010000D03*
D14*
X137872500Y-102630000D03*
X137872500Y-110250000D03*
%TD*%
M02*
