%TF.GenerationSoftware,KiCad,Pcbnew,9.0.6*%
%TF.CreationDate,2025-11-29T13:29:23+01:00*%
%TF.ProjectId,AMN_230V_pcb,414d4e5f-3233-4305-965f-7063622e6b69,rev?*%
%TF.SameCoordinates,Original*%
%TF.FileFunction,Soldermask,Top*%
%TF.FilePolarity,Negative*%
%FSLAX46Y46*%
G04 Gerber Fmt 4.6, Leading zero omitted, Abs format (unit mm)*
G04 Created by KiCad (PCBNEW 9.0.6) date 2025-11-29 13:29:23*
%MOMM*%
%LPD*%
G01*
G04 APERTURE LIST*
G04 Aperture macros list*
%AMRoundRect*
0 Rectangle with rounded corners*
0 $1 Rounding radius*
0 $2 $3 $4 $5 $6 $7 $8 $9 X,Y pos of 4 corners*
0 Add a 4 corners polygon primitive as box body*
4,1,4,$2,$3,$4,$5,$6,$7,$8,$9,$2,$3,0*
0 Add four circle primitives for the rounded corners*
1,1,$1+$1,$2,$3*
1,1,$1+$1,$4,$5*
1,1,$1+$1,$6,$7*
1,1,$1+$1,$8,$9*
0 Add four rect primitives between the rounded corners*
20,1,$1+$1,$2,$3,$4,$5,0*
20,1,$1+$1,$4,$5,$6,$7,0*
20,1,$1+$1,$6,$7,$8,$9,0*
20,1,$1+$1,$8,$9,$2,$3,0*%
G04 Aperture macros list end*
%ADD10RoundRect,0.150000X0.150000X-0.587500X0.150000X0.587500X-0.150000X0.587500X-0.150000X-0.587500X0*%
%ADD11RoundRect,0.200000X0.275000X-0.200000X0.275000X0.200000X-0.275000X0.200000X-0.275000X-0.200000X0*%
%ADD12C,3.500000*%
%ADD13C,2.000000*%
%ADD14R,1.778000X1.778000*%
%ADD15C,1.778000*%
%ADD16C,1.900000*%
%ADD17RoundRect,0.250000X-0.650000X1.000000X-0.650000X-1.000000X0.650000X-1.000000X0.650000X1.000000X0*%
%ADD18C,1.800000*%
%ADD19R,1.700000X1.700000*%
%ADD20C,1.700000*%
%ADD21RoundRect,0.200000X-0.275000X0.200000X-0.275000X-0.200000X0.275000X-0.200000X0.275000X0.200000X0*%
%ADD22RoundRect,0.249999X0.790001X1.550001X-0.790001X1.550001X-0.790001X-1.550001X0.790001X-1.550001X0*%
%ADD23O,2.080000X3.600000*%
%ADD24RoundRect,0.150000X-0.150000X0.587500X-0.150000X-0.587500X0.150000X-0.587500X0.150000X0.587500X0*%
%ADD25RoundRect,0.225000X-0.250000X0.225000X-0.250000X-0.225000X0.250000X-0.225000X0.250000X0.225000X0*%
%ADD26RoundRect,0.200000X-0.200000X0.562500X-0.200000X-0.562500X0.200000X-0.562500X0.200000X0.562500X0*%
%ADD27RoundRect,0.250000X0.650000X1.550000X-0.650000X1.550000X-0.650000X-1.550000X0.650000X-1.550000X0*%
%ADD28O,1.800000X3.600000*%
%ADD29RoundRect,0.250000X-1.000000X1.950000X-1.000000X-1.950000X1.000000X-1.950000X1.000000X1.950000X0*%
%ADD30C,2.100000*%
%ADD31C,1.500000*%
%ADD32RoundRect,0.225000X0.250000X-0.225000X0.250000X0.225000X-0.250000X0.225000X-0.250000X-0.225000X0*%
%ADD33RoundRect,0.250000X0.850000X0.350000X-0.850000X0.350000X-0.850000X-0.350000X0.850000X-0.350000X0*%
%ADD34RoundRect,0.249997X2.950003X2.650003X-2.950003X2.650003X-2.950003X-2.650003X2.950003X-2.650003X0*%
G04 APERTURE END LIST*
D10*
%TO.C,Q3*%
X83600000Y-75025000D03*
X85500000Y-75025000D03*
X84550000Y-73150000D03*
%TD*%
D11*
%TO.C,R2*%
X125050000Y-63450000D03*
X125050000Y-61800000D03*
%TD*%
D12*
%TO.C,H3*%
X145350000Y-119350000D03*
%TD*%
D13*
%TO.C,F2*%
X120310000Y-117650000D03*
X125390000Y-117650000D03*
%TD*%
D11*
%TO.C,R1*%
X119400000Y-63450000D03*
X119400000Y-61800000D03*
%TD*%
D14*
%TO.C,K3*%
X79922500Y-66997500D03*
D15*
X79922500Y-69537500D03*
D16*
X79922500Y-77157500D03*
X79922500Y-84777500D03*
%TD*%
D17*
%TO.C,D1*%
X131350000Y-80600000D03*
X131350000Y-84600000D03*
%TD*%
D18*
%TO.C,V3*%
X101100000Y-126700000D03*
X102500000Y-119200000D03*
%TD*%
D12*
%TO.C,H1*%
X67350000Y-83350000D03*
%TD*%
D19*
%TO.C,J5*%
X132850000Y-61850000D03*
D20*
X130310000Y-61850000D03*
X132850000Y-64390000D03*
X130310000Y-64390000D03*
X132850000Y-66930000D03*
X130310000Y-66930000D03*
X132850000Y-69470000D03*
X130310000Y-69470000D03*
%TD*%
D13*
%TO.C,F1*%
X114240000Y-117550000D03*
X109160000Y-117550000D03*
%TD*%
D21*
%TO.C,R7*%
X105100000Y-62825000D03*
X105100000Y-64475000D03*
%TD*%
%TO.C,R3*%
X83650000Y-79750000D03*
X83650000Y-81400000D03*
%TD*%
D17*
%TO.C,D3*%
X84500000Y-65450000D03*
X84500000Y-69450000D03*
%TD*%
D18*
%TO.C,V2*%
X132700000Y-127600000D03*
X125200000Y-126200000D03*
%TD*%
D22*
%TO.C,J2*%
X111550000Y-137000000D03*
D23*
X106470000Y-137000000D03*
X101390000Y-137000000D03*
%TD*%
D24*
%TO.C,Q2*%
X126900000Y-66962500D03*
X125000000Y-66962500D03*
X125950000Y-68837500D03*
%TD*%
D25*
%TO.C,C2*%
X102000000Y-62900000D03*
X102000000Y-64450000D03*
%TD*%
D26*
%TO.C,D4*%
X98800000Y-69150000D03*
X94800000Y-69150000D03*
X94800000Y-75025000D03*
X98800000Y-75025000D03*
%TD*%
D27*
%TO.C,J6*%
X74800000Y-106950000D03*
D28*
X71300000Y-106950000D03*
X67800000Y-106950000D03*
X64300000Y-106950000D03*
%TD*%
D21*
%TO.C,R6*%
X85450000Y-79750000D03*
X85450000Y-81400000D03*
%TD*%
D12*
%TO.C,H4*%
X67350000Y-119350000D03*
%TD*%
D11*
%TO.C,R4*%
X121250000Y-63450000D03*
X121250000Y-61800000D03*
%TD*%
D24*
%TO.C,Q1*%
X121250000Y-66925000D03*
X119350000Y-66925000D03*
X120300000Y-68800000D03*
%TD*%
D14*
%TO.C,K2*%
X149150000Y-92470000D03*
D15*
X149150000Y-95010000D03*
D16*
X149150000Y-102630000D03*
X149150000Y-110250000D03*
%TD*%
D18*
%TO.C,V1*%
X115550000Y-127650000D03*
X108050000Y-126250000D03*
%TD*%
D29*
%TO.C,C1*%
X107000000Y-68150000D03*
X107000000Y-76550000D03*
%TD*%
D22*
%TO.C,J3*%
X132750000Y-137000000D03*
D23*
X127670000Y-137000000D03*
X122590000Y-137000000D03*
%TD*%
D30*
%TO.C,T1*%
X100650000Y-103850000D03*
X120650000Y-103850000D03*
D31*
X105650000Y-83850000D03*
X115650000Y-83850000D03*
%TD*%
D32*
%TO.C,C3*%
X102000000Y-61275000D03*
X102000000Y-59725000D03*
%TD*%
D17*
%TO.C,D2*%
X136550000Y-80650000D03*
X136550000Y-84650000D03*
%TD*%
D22*
%TO.C,J1*%
X90250000Y-137050000D03*
D23*
X85170000Y-137050000D03*
X80090000Y-137050000D03*
%TD*%
D11*
%TO.C,R5*%
X126900000Y-63450000D03*
X126900000Y-61800000D03*
%TD*%
D12*
%TO.C,H2*%
X145350000Y-83350000D03*
%TD*%
D33*
%TO.C,U1*%
X98800000Y-62910000D03*
D34*
X92500000Y-60630000D03*
D33*
X98800000Y-58350000D03*
%TD*%
D27*
%TO.C,J4*%
X74950000Y-93650000D03*
D28*
X71450000Y-93650000D03*
X67950000Y-93650000D03*
X64450000Y-93650000D03*
%TD*%
D14*
%TO.C,K1*%
X137872500Y-92470000D03*
D15*
X137872500Y-95010000D03*
D16*
X137872500Y-102630000D03*
X137872500Y-110250000D03*
%TD*%
M02*
