%TF.GenerationSoftware,KiCad,Pcbnew,9.0.6*%
%TF.CreationDate,2025-11-29T13:29:22+01:00*%
%TF.ProjectId,AMN_230V_pcb,414d4e5f-3233-4305-965f-7063622e6b69,rev?*%
%TF.SameCoordinates,Original*%
%TF.FileFunction,Paste,Top*%
%TF.FilePolarity,Positive*%
%FSLAX46Y46*%
G04 Gerber Fmt 4.6, Leading zero omitted, Abs format (unit mm)*
G04 Created by KiCad (PCBNEW 9.0.6) date 2025-11-29 13:29:22*
%MOMM*%
%LPD*%
G01*
G04 APERTURE LIST*
G04 Aperture macros list*
%AMRoundRect*
0 Rectangle with rounded corners*
0 $1 Rounding radius*
0 $2 $3 $4 $5 $6 $7 $8 $9 X,Y pos of 4 corners*
0 Add a 4 corners polygon primitive as box body*
4,1,4,$2,$3,$4,$5,$6,$7,$8,$9,$2,$3,0*
0 Add four circle primitives for the rounded corners*
1,1,$1+$1,$2,$3*
1,1,$1+$1,$4,$5*
1,1,$1+$1,$6,$7*
1,1,$1+$1,$8,$9*
0 Add four rect primitives between the rounded corners*
20,1,$1+$1,$2,$3,$4,$5,0*
20,1,$1+$1,$4,$5,$6,$7,0*
20,1,$1+$1,$6,$7,$8,$9,0*
20,1,$1+$1,$8,$9,$2,$3,0*%
G04 Aperture macros list end*
%ADD10RoundRect,0.150000X0.150000X-0.587500X0.150000X0.587500X-0.150000X0.587500X-0.150000X-0.587500X0*%
%ADD11RoundRect,0.200000X0.275000X-0.200000X0.275000X0.200000X-0.275000X0.200000X-0.275000X-0.200000X0*%
%ADD12RoundRect,0.250000X-0.650000X1.000000X-0.650000X-1.000000X0.650000X-1.000000X0.650000X1.000000X0*%
%ADD13RoundRect,0.200000X-0.275000X0.200000X-0.275000X-0.200000X0.275000X-0.200000X0.275000X0.200000X0*%
%ADD14RoundRect,0.150000X-0.150000X0.587500X-0.150000X-0.587500X0.150000X-0.587500X0.150000X0.587500X0*%
%ADD15RoundRect,0.225000X-0.250000X0.225000X-0.250000X-0.225000X0.250000X-0.225000X0.250000X0.225000X0*%
%ADD16RoundRect,0.200000X-0.200000X0.562500X-0.200000X-0.562500X0.200000X-0.562500X0.200000X0.562500X0*%
%ADD17RoundRect,0.250000X-1.000000X1.950000X-1.000000X-1.950000X1.000000X-1.950000X1.000000X1.950000X0*%
%ADD18RoundRect,0.225000X0.250000X-0.225000X0.250000X0.225000X-0.250000X0.225000X-0.250000X-0.225000X0*%
%ADD19RoundRect,0.250000X1.275000X1.125000X-1.275000X1.125000X-1.275000X-1.125000X1.275000X-1.125000X0*%
%ADD20RoundRect,0.250000X0.850000X0.350000X-0.850000X0.350000X-0.850000X-0.350000X0.850000X-0.350000X0*%
G04 APERTURE END LIST*
D10*
%TO.C,Q3*%
X83600000Y-75025000D03*
X85500000Y-75025000D03*
X84550000Y-73150000D03*
%TD*%
D11*
%TO.C,R2*%
X125050000Y-63450000D03*
X125050000Y-61800000D03*
%TD*%
%TO.C,R1*%
X119400000Y-63450000D03*
X119400000Y-61800000D03*
%TD*%
D12*
%TO.C,D1*%
X131350000Y-80600000D03*
X131350000Y-84600000D03*
%TD*%
D13*
%TO.C,R7*%
X105100000Y-62825000D03*
X105100000Y-64475000D03*
%TD*%
%TO.C,R3*%
X83650000Y-79750000D03*
X83650000Y-81400000D03*
%TD*%
D12*
%TO.C,D3*%
X84500000Y-65450000D03*
X84500000Y-69450000D03*
%TD*%
D14*
%TO.C,Q2*%
X126900000Y-66962500D03*
X125000000Y-66962500D03*
X125950000Y-68837500D03*
%TD*%
D15*
%TO.C,C2*%
X102000000Y-62900000D03*
X102000000Y-64450000D03*
%TD*%
D16*
%TO.C,D4*%
X98800000Y-69150000D03*
X94800000Y-69150000D03*
X94800000Y-75025000D03*
X98800000Y-75025000D03*
%TD*%
D13*
%TO.C,R6*%
X85450000Y-79750000D03*
X85450000Y-81400000D03*
%TD*%
D11*
%TO.C,R4*%
X121250000Y-63450000D03*
X121250000Y-61800000D03*
%TD*%
D14*
%TO.C,Q1*%
X121250000Y-66925000D03*
X119350000Y-66925000D03*
X120300000Y-68800000D03*
%TD*%
D17*
%TO.C,C1*%
X107000000Y-68150000D03*
X107000000Y-76550000D03*
%TD*%
D18*
%TO.C,C3*%
X102000000Y-61275000D03*
X102000000Y-59725000D03*
%TD*%
D12*
%TO.C,D2*%
X136550000Y-80650000D03*
X136550000Y-84650000D03*
%TD*%
D11*
%TO.C,R5*%
X126900000Y-63450000D03*
X126900000Y-61800000D03*
%TD*%
D19*
%TO.C,U1*%
X94175000Y-62155000D03*
X94175000Y-59105000D03*
X90825000Y-62155000D03*
X90825000Y-59105000D03*
D20*
X98800000Y-62910000D03*
X98800000Y-58350000D03*
%TD*%
M02*
