%TF.GenerationSoftware,KiCad,Pcbnew,9.0.6*%
%TF.CreationDate,2025-11-29T13:29:29+01:00*%
%TF.ProjectId,AMN_230V_pcb,414d4e5f-3233-4305-965f-7063622e6b69,rev?*%
%TF.SameCoordinates,Original*%
%TF.FileFunction,Drillmap*%
%TF.FilePolarity,Positive*%
%FSLAX45Y45*%
G04 Gerber Fmt 4.5, Leading zero omitted, Abs format (unit mm)*
G04 Created by KiCad (PCBNEW 9.0.6) date 2025-11-29 13:29:29*
%MOMM*%
%LPD*%
G01*
G04 APERTURE LIST*
%ADD10C,0.050000*%
%ADD11C,0.200000*%
%ADD12C,0.350000*%
G04 APERTURE END LIST*
D10*
X14333553Y-7556447D02*
G75*
G02*
X13833553Y-7056447I-3J499997D01*
G01*
X5983553Y-8053553D02*
G75*
G02*
X6483553Y-7553553I500000J0D01*
G01*
X7933553Y-5485000D02*
X13336447Y-5485553D01*
X14776450Y-7553553D02*
X14333553Y-7556447D01*
X7421447Y-7056447D02*
G75*
G02*
X6921447Y-7556447I-500000J0D01*
G01*
X7441446Y-13243553D02*
X7438553Y-14283447D01*
X14829683Y-12734683D02*
X14323553Y-12735003D01*
X13833553Y-7056447D02*
X13836447Y-5985550D01*
X13384683Y-14784683D02*
X7938550Y-14783447D01*
X14776447Y-7553553D02*
G75*
G02*
X15276447Y-8053553I3J-499997D01*
G01*
X13823553Y-13235000D02*
X13834683Y-14334683D01*
X13336447Y-5485553D02*
G75*
G02*
X13836447Y-5985553I3J-499997D01*
G01*
X15279683Y-12284682D02*
X15276447Y-8053553D01*
X13834683Y-14334683D02*
G75*
G02*
X13384683Y-14784683I-500003J50003D01*
G01*
X7421447Y-7056447D02*
X7433553Y-5985000D01*
X6483553Y-12741447D02*
G75*
G02*
X5983553Y-12241447I-3J499997D01*
G01*
X6483553Y-7553553D02*
X6921447Y-7556447D01*
X5983553Y-12241447D02*
X5983553Y-8053553D01*
X7433553Y-5985000D02*
G75*
G02*
X7933553Y-5485003I499997J0D01*
G01*
X6941450Y-12743553D02*
X6483553Y-12741447D01*
X13823553Y-13235000D02*
G75*
G02*
X14323553Y-12735003I499997J0D01*
G01*
X15279683Y-12284683D02*
G75*
G02*
X14829683Y-12734683I-500003J50003D01*
G01*
X7938553Y-14783447D02*
G75*
G02*
X7438553Y-14283447I-3J499997D01*
G01*
X6941447Y-12743553D02*
G75*
G02*
X7441447Y-13243553I3J-499997D01*
G01*
D11*
D12*
X6560000Y-8160000D02*
X6910000Y-8510000D01*
X6910000Y-8160000D02*
X6560000Y-8510000D01*
X6560000Y-11760000D02*
X6910000Y-12110000D01*
X6910000Y-11760000D02*
X6560000Y-12110000D01*
X14360000Y-8160000D02*
X14710000Y-8510000D01*
X14710000Y-8160000D02*
X14360000Y-8510000D01*
X14360000Y-11760000D02*
X14710000Y-12110000D01*
X14710000Y-11760000D02*
X14360000Y-12110000D01*
D11*
X6241830Y-15098667D02*
X6241830Y-14898667D01*
X6241830Y-14898667D02*
X6289449Y-14898667D01*
X6289449Y-14898667D02*
X6318021Y-14908191D01*
X6318021Y-14908191D02*
X6337068Y-14927238D01*
X6337068Y-14927238D02*
X6346592Y-14946286D01*
X6346592Y-14946286D02*
X6356116Y-14984381D01*
X6356116Y-14984381D02*
X6356116Y-15012953D01*
X6356116Y-15012953D02*
X6346592Y-15051048D01*
X6346592Y-15051048D02*
X6337068Y-15070095D01*
X6337068Y-15070095D02*
X6318021Y-15089143D01*
X6318021Y-15089143D02*
X6289449Y-15098667D01*
X6289449Y-15098667D02*
X6241830Y-15098667D01*
X6441830Y-15098667D02*
X6441830Y-14965334D01*
X6441830Y-15003429D02*
X6451354Y-14984381D01*
X6451354Y-14984381D02*
X6460878Y-14974857D01*
X6460878Y-14974857D02*
X6479925Y-14965334D01*
X6479925Y-14965334D02*
X6498973Y-14965334D01*
X6565640Y-15098667D02*
X6565640Y-14965334D01*
X6565640Y-14898667D02*
X6556116Y-14908191D01*
X6556116Y-14908191D02*
X6565640Y-14917715D01*
X6565640Y-14917715D02*
X6575163Y-14908191D01*
X6575163Y-14908191D02*
X6565640Y-14898667D01*
X6565640Y-14898667D02*
X6565640Y-14917715D01*
X6689449Y-15098667D02*
X6670402Y-15089143D01*
X6670402Y-15089143D02*
X6660878Y-15070095D01*
X6660878Y-15070095D02*
X6660878Y-14898667D01*
X6794211Y-15098667D02*
X6775163Y-15089143D01*
X6775163Y-15089143D02*
X6765640Y-15070095D01*
X6765640Y-15070095D02*
X6765640Y-14898667D01*
X7022783Y-15098667D02*
X7022783Y-14898667D01*
X7022783Y-14898667D02*
X7089449Y-15041524D01*
X7089449Y-15041524D02*
X7156116Y-14898667D01*
X7156116Y-14898667D02*
X7156116Y-15098667D01*
X7337068Y-15098667D02*
X7337068Y-14993905D01*
X7337068Y-14993905D02*
X7327544Y-14974857D01*
X7327544Y-14974857D02*
X7308497Y-14965334D01*
X7308497Y-14965334D02*
X7270402Y-14965334D01*
X7270402Y-14965334D02*
X7251354Y-14974857D01*
X7337068Y-15089143D02*
X7318021Y-15098667D01*
X7318021Y-15098667D02*
X7270402Y-15098667D01*
X7270402Y-15098667D02*
X7251354Y-15089143D01*
X7251354Y-15089143D02*
X7241830Y-15070095D01*
X7241830Y-15070095D02*
X7241830Y-15051048D01*
X7241830Y-15051048D02*
X7251354Y-15032000D01*
X7251354Y-15032000D02*
X7270402Y-15022476D01*
X7270402Y-15022476D02*
X7318021Y-15022476D01*
X7318021Y-15022476D02*
X7337068Y-15012953D01*
X7432306Y-14965334D02*
X7432306Y-15165334D01*
X7432306Y-14974857D02*
X7451354Y-14965334D01*
X7451354Y-14965334D02*
X7489449Y-14965334D01*
X7489449Y-14965334D02*
X7508497Y-14974857D01*
X7508497Y-14974857D02*
X7518021Y-14984381D01*
X7518021Y-14984381D02*
X7527544Y-15003429D01*
X7527544Y-15003429D02*
X7527544Y-15060572D01*
X7527544Y-15060572D02*
X7518021Y-15079619D01*
X7518021Y-15079619D02*
X7508497Y-15089143D01*
X7508497Y-15089143D02*
X7489449Y-15098667D01*
X7489449Y-15098667D02*
X7451354Y-15098667D01*
X7451354Y-15098667D02*
X7432306Y-15089143D01*
X7613259Y-15079619D02*
X7622783Y-15089143D01*
X7622783Y-15089143D02*
X7613259Y-15098667D01*
X7613259Y-15098667D02*
X7603735Y-15089143D01*
X7603735Y-15089143D02*
X7613259Y-15079619D01*
X7613259Y-15079619D02*
X7613259Y-15098667D01*
X7613259Y-14974857D02*
X7622783Y-14984381D01*
X7622783Y-14984381D02*
X7613259Y-14993905D01*
X7613259Y-14993905D02*
X7603735Y-14984381D01*
X7603735Y-14984381D02*
X7613259Y-14974857D01*
X7613259Y-14974857D02*
X7613259Y-14993905D01*
X5781053Y-15327183D02*
X5981053Y-15527183D01*
X5981053Y-15327183D02*
X5781053Y-15527183D01*
X6222783Y-15318667D02*
X6346592Y-15318667D01*
X6346592Y-15318667D02*
X6279925Y-15394857D01*
X6279925Y-15394857D02*
X6308497Y-15394857D01*
X6308497Y-15394857D02*
X6327544Y-15404381D01*
X6327544Y-15404381D02*
X6337068Y-15413905D01*
X6337068Y-15413905D02*
X6346592Y-15432953D01*
X6346592Y-15432953D02*
X6346592Y-15480572D01*
X6346592Y-15480572D02*
X6337068Y-15499619D01*
X6337068Y-15499619D02*
X6327544Y-15509143D01*
X6327544Y-15509143D02*
X6308497Y-15518667D01*
X6308497Y-15518667D02*
X6251354Y-15518667D01*
X6251354Y-15518667D02*
X6232306Y-15509143D01*
X6232306Y-15509143D02*
X6222783Y-15499619D01*
X6432306Y-15499619D02*
X6441830Y-15509143D01*
X6441830Y-15509143D02*
X6432306Y-15518667D01*
X6432306Y-15518667D02*
X6422783Y-15509143D01*
X6422783Y-15509143D02*
X6432306Y-15499619D01*
X6432306Y-15499619D02*
X6432306Y-15518667D01*
X6622783Y-15318667D02*
X6527544Y-15318667D01*
X6527544Y-15318667D02*
X6518021Y-15413905D01*
X6518021Y-15413905D02*
X6527544Y-15404381D01*
X6527544Y-15404381D02*
X6546592Y-15394857D01*
X6546592Y-15394857D02*
X6594211Y-15394857D01*
X6594211Y-15394857D02*
X6613259Y-15404381D01*
X6613259Y-15404381D02*
X6622783Y-15413905D01*
X6622783Y-15413905D02*
X6632306Y-15432953D01*
X6632306Y-15432953D02*
X6632306Y-15480572D01*
X6632306Y-15480572D02*
X6622783Y-15499619D01*
X6622783Y-15499619D02*
X6613259Y-15509143D01*
X6613259Y-15509143D02*
X6594211Y-15518667D01*
X6594211Y-15518667D02*
X6546592Y-15518667D01*
X6546592Y-15518667D02*
X6527544Y-15509143D01*
X6527544Y-15509143D02*
X6518021Y-15499619D01*
X6756116Y-15318667D02*
X6775164Y-15318667D01*
X6775164Y-15318667D02*
X6794211Y-15328191D01*
X6794211Y-15328191D02*
X6803735Y-15337715D01*
X6803735Y-15337715D02*
X6813259Y-15356762D01*
X6813259Y-15356762D02*
X6822783Y-15394857D01*
X6822783Y-15394857D02*
X6822783Y-15442476D01*
X6822783Y-15442476D02*
X6813259Y-15480572D01*
X6813259Y-15480572D02*
X6803735Y-15499619D01*
X6803735Y-15499619D02*
X6794211Y-15509143D01*
X6794211Y-15509143D02*
X6775164Y-15518667D01*
X6775164Y-15518667D02*
X6756116Y-15518667D01*
X6756116Y-15518667D02*
X6737068Y-15509143D01*
X6737068Y-15509143D02*
X6727544Y-15499619D01*
X6727544Y-15499619D02*
X6718021Y-15480572D01*
X6718021Y-15480572D02*
X6708497Y-15442476D01*
X6708497Y-15442476D02*
X6708497Y-15394857D01*
X6708497Y-15394857D02*
X6718021Y-15356762D01*
X6718021Y-15356762D02*
X6727544Y-15337715D01*
X6727544Y-15337715D02*
X6737068Y-15328191D01*
X6737068Y-15328191D02*
X6756116Y-15318667D01*
X6946592Y-15318667D02*
X6965640Y-15318667D01*
X6965640Y-15318667D02*
X6984687Y-15328191D01*
X6984687Y-15328191D02*
X6994211Y-15337715D01*
X6994211Y-15337715D02*
X7003735Y-15356762D01*
X7003735Y-15356762D02*
X7013259Y-15394857D01*
X7013259Y-15394857D02*
X7013259Y-15442476D01*
X7013259Y-15442476D02*
X7003735Y-15480572D01*
X7003735Y-15480572D02*
X6994211Y-15499619D01*
X6994211Y-15499619D02*
X6984687Y-15509143D01*
X6984687Y-15509143D02*
X6965640Y-15518667D01*
X6965640Y-15518667D02*
X6946592Y-15518667D01*
X6946592Y-15518667D02*
X6927544Y-15509143D01*
X6927544Y-15509143D02*
X6918021Y-15499619D01*
X6918021Y-15499619D02*
X6908497Y-15480572D01*
X6908497Y-15480572D02*
X6898973Y-15442476D01*
X6898973Y-15442476D02*
X6898973Y-15394857D01*
X6898973Y-15394857D02*
X6908497Y-15356762D01*
X6908497Y-15356762D02*
X6918021Y-15337715D01*
X6918021Y-15337715D02*
X6927544Y-15328191D01*
X6927544Y-15328191D02*
X6946592Y-15318667D01*
X7098973Y-15518667D02*
X7098973Y-15385334D01*
X7098973Y-15404381D02*
X7108497Y-15394857D01*
X7108497Y-15394857D02*
X7127544Y-15385334D01*
X7127544Y-15385334D02*
X7156116Y-15385334D01*
X7156116Y-15385334D02*
X7175164Y-15394857D01*
X7175164Y-15394857D02*
X7184687Y-15413905D01*
X7184687Y-15413905D02*
X7184687Y-15518667D01*
X7184687Y-15413905D02*
X7194211Y-15394857D01*
X7194211Y-15394857D02*
X7213259Y-15385334D01*
X7213259Y-15385334D02*
X7241830Y-15385334D01*
X7241830Y-15385334D02*
X7260878Y-15394857D01*
X7260878Y-15394857D02*
X7270402Y-15413905D01*
X7270402Y-15413905D02*
X7270402Y-15518667D01*
X7365640Y-15518667D02*
X7365640Y-15385334D01*
X7365640Y-15404381D02*
X7375164Y-15394857D01*
X7375164Y-15394857D02*
X7394211Y-15385334D01*
X7394211Y-15385334D02*
X7422783Y-15385334D01*
X7422783Y-15385334D02*
X7441830Y-15394857D01*
X7441830Y-15394857D02*
X7451354Y-15413905D01*
X7451354Y-15413905D02*
X7451354Y-15518667D01*
X7451354Y-15413905D02*
X7460878Y-15394857D01*
X7460878Y-15394857D02*
X7479925Y-15385334D01*
X7479925Y-15385334D02*
X7508497Y-15385334D01*
X7508497Y-15385334D02*
X7527545Y-15394857D01*
X7527545Y-15394857D02*
X7537068Y-15413905D01*
X7537068Y-15413905D02*
X7537068Y-15518667D01*
X7927545Y-15309143D02*
X7756116Y-15566286D01*
X8184687Y-15318667D02*
X8203735Y-15318667D01*
X8203735Y-15318667D02*
X8222783Y-15328191D01*
X8222783Y-15328191D02*
X8232307Y-15337715D01*
X8232307Y-15337715D02*
X8241830Y-15356762D01*
X8241830Y-15356762D02*
X8251354Y-15394857D01*
X8251354Y-15394857D02*
X8251354Y-15442476D01*
X8251354Y-15442476D02*
X8241830Y-15480572D01*
X8241830Y-15480572D02*
X8232307Y-15499619D01*
X8232307Y-15499619D02*
X8222783Y-15509143D01*
X8222783Y-15509143D02*
X8203735Y-15518667D01*
X8203735Y-15518667D02*
X8184687Y-15518667D01*
X8184687Y-15518667D02*
X8165640Y-15509143D01*
X8165640Y-15509143D02*
X8156116Y-15499619D01*
X8156116Y-15499619D02*
X8146592Y-15480572D01*
X8146592Y-15480572D02*
X8137068Y-15442476D01*
X8137068Y-15442476D02*
X8137068Y-15394857D01*
X8137068Y-15394857D02*
X8146592Y-15356762D01*
X8146592Y-15356762D02*
X8156116Y-15337715D01*
X8156116Y-15337715D02*
X8165640Y-15328191D01*
X8165640Y-15328191D02*
X8184687Y-15318667D01*
X8337068Y-15499619D02*
X8346592Y-15509143D01*
X8346592Y-15509143D02*
X8337068Y-15518667D01*
X8337068Y-15518667D02*
X8327545Y-15509143D01*
X8327545Y-15509143D02*
X8337068Y-15499619D01*
X8337068Y-15499619D02*
X8337068Y-15518667D01*
X8537069Y-15518667D02*
X8422783Y-15518667D01*
X8479926Y-15518667D02*
X8479926Y-15318667D01*
X8479926Y-15318667D02*
X8460878Y-15347238D01*
X8460878Y-15347238D02*
X8441830Y-15366286D01*
X8441830Y-15366286D02*
X8422783Y-15375810D01*
X8603735Y-15318667D02*
X8727545Y-15318667D01*
X8727545Y-15318667D02*
X8660878Y-15394857D01*
X8660878Y-15394857D02*
X8689450Y-15394857D01*
X8689450Y-15394857D02*
X8708497Y-15404381D01*
X8708497Y-15404381D02*
X8718021Y-15413905D01*
X8718021Y-15413905D02*
X8727545Y-15432953D01*
X8727545Y-15432953D02*
X8727545Y-15480572D01*
X8727545Y-15480572D02*
X8718021Y-15499619D01*
X8718021Y-15499619D02*
X8708497Y-15509143D01*
X8708497Y-15509143D02*
X8689450Y-15518667D01*
X8689450Y-15518667D02*
X8632307Y-15518667D01*
X8632307Y-15518667D02*
X8613259Y-15509143D01*
X8613259Y-15509143D02*
X8603735Y-15499619D01*
X8794211Y-15318667D02*
X8927545Y-15318667D01*
X8927545Y-15318667D02*
X8841830Y-15518667D01*
X9032307Y-15404381D02*
X9013259Y-15394857D01*
X9013259Y-15394857D02*
X9003735Y-15385334D01*
X9003735Y-15385334D02*
X8994211Y-15366286D01*
X8994211Y-15366286D02*
X8994211Y-15356762D01*
X8994211Y-15356762D02*
X9003735Y-15337715D01*
X9003735Y-15337715D02*
X9013259Y-15328191D01*
X9013259Y-15328191D02*
X9032307Y-15318667D01*
X9032307Y-15318667D02*
X9070402Y-15318667D01*
X9070402Y-15318667D02*
X9089450Y-15328191D01*
X9089450Y-15328191D02*
X9098973Y-15337715D01*
X9098973Y-15337715D02*
X9108497Y-15356762D01*
X9108497Y-15356762D02*
X9108497Y-15366286D01*
X9108497Y-15366286D02*
X9098973Y-15385334D01*
X9098973Y-15385334D02*
X9089450Y-15394857D01*
X9089450Y-15394857D02*
X9070402Y-15404381D01*
X9070402Y-15404381D02*
X9032307Y-15404381D01*
X9032307Y-15404381D02*
X9013259Y-15413905D01*
X9013259Y-15413905D02*
X9003735Y-15423429D01*
X9003735Y-15423429D02*
X8994211Y-15442476D01*
X8994211Y-15442476D02*
X8994211Y-15480572D01*
X8994211Y-15480572D02*
X9003735Y-15499619D01*
X9003735Y-15499619D02*
X9013259Y-15509143D01*
X9013259Y-15509143D02*
X9032307Y-15518667D01*
X9032307Y-15518667D02*
X9070402Y-15518667D01*
X9070402Y-15518667D02*
X9089450Y-15509143D01*
X9089450Y-15509143D02*
X9098973Y-15499619D01*
X9098973Y-15499619D02*
X9108497Y-15480572D01*
X9108497Y-15480572D02*
X9108497Y-15442476D01*
X9108497Y-15442476D02*
X9098973Y-15423429D01*
X9098973Y-15423429D02*
X9089450Y-15413905D01*
X9089450Y-15413905D02*
X9070402Y-15404381D01*
X9184688Y-15318667D02*
X9184688Y-15356762D01*
X9260878Y-15318667D02*
X9260878Y-15356762D01*
X9556116Y-15594857D02*
X9546592Y-15585334D01*
X9546592Y-15585334D02*
X9527545Y-15556762D01*
X9527545Y-15556762D02*
X9518021Y-15537715D01*
X9518021Y-15537715D02*
X9508497Y-15509143D01*
X9508497Y-15509143D02*
X9498973Y-15461524D01*
X9498973Y-15461524D02*
X9498973Y-15423429D01*
X9498973Y-15423429D02*
X9508497Y-15375810D01*
X9508497Y-15375810D02*
X9518021Y-15347238D01*
X9518021Y-15347238D02*
X9527545Y-15328191D01*
X9527545Y-15328191D02*
X9546592Y-15299619D01*
X9546592Y-15299619D02*
X9556116Y-15290095D01*
X9718021Y-15385334D02*
X9718021Y-15518667D01*
X9670402Y-15309143D02*
X9622783Y-15452000D01*
X9622783Y-15452000D02*
X9746592Y-15452000D01*
X9975164Y-15518667D02*
X9975164Y-15318667D01*
X10060878Y-15518667D02*
X10060878Y-15413905D01*
X10060878Y-15413905D02*
X10051354Y-15394857D01*
X10051354Y-15394857D02*
X10032307Y-15385334D01*
X10032307Y-15385334D02*
X10003735Y-15385334D01*
X10003735Y-15385334D02*
X9984688Y-15394857D01*
X9984688Y-15394857D02*
X9975164Y-15404381D01*
X10184688Y-15518667D02*
X10165640Y-15509143D01*
X10165640Y-15509143D02*
X10156116Y-15499619D01*
X10156116Y-15499619D02*
X10146593Y-15480572D01*
X10146593Y-15480572D02*
X10146593Y-15423429D01*
X10146593Y-15423429D02*
X10156116Y-15404381D01*
X10156116Y-15404381D02*
X10165640Y-15394857D01*
X10165640Y-15394857D02*
X10184688Y-15385334D01*
X10184688Y-15385334D02*
X10213259Y-15385334D01*
X10213259Y-15385334D02*
X10232307Y-15394857D01*
X10232307Y-15394857D02*
X10241831Y-15404381D01*
X10241831Y-15404381D02*
X10251354Y-15423429D01*
X10251354Y-15423429D02*
X10251354Y-15480572D01*
X10251354Y-15480572D02*
X10241831Y-15499619D01*
X10241831Y-15499619D02*
X10232307Y-15509143D01*
X10232307Y-15509143D02*
X10213259Y-15518667D01*
X10213259Y-15518667D02*
X10184688Y-15518667D01*
X10365640Y-15518667D02*
X10346593Y-15509143D01*
X10346593Y-15509143D02*
X10337069Y-15490095D01*
X10337069Y-15490095D02*
X10337069Y-15318667D01*
X10518021Y-15509143D02*
X10498974Y-15518667D01*
X10498974Y-15518667D02*
X10460878Y-15518667D01*
X10460878Y-15518667D02*
X10441831Y-15509143D01*
X10441831Y-15509143D02*
X10432307Y-15490095D01*
X10432307Y-15490095D02*
X10432307Y-15413905D01*
X10432307Y-15413905D02*
X10441831Y-15394857D01*
X10441831Y-15394857D02*
X10460878Y-15385334D01*
X10460878Y-15385334D02*
X10498974Y-15385334D01*
X10498974Y-15385334D02*
X10518021Y-15394857D01*
X10518021Y-15394857D02*
X10527545Y-15413905D01*
X10527545Y-15413905D02*
X10527545Y-15432953D01*
X10527545Y-15432953D02*
X10432307Y-15452000D01*
X10603735Y-15509143D02*
X10622783Y-15518667D01*
X10622783Y-15518667D02*
X10660878Y-15518667D01*
X10660878Y-15518667D02*
X10679926Y-15509143D01*
X10679926Y-15509143D02*
X10689450Y-15490095D01*
X10689450Y-15490095D02*
X10689450Y-15480572D01*
X10689450Y-15480572D02*
X10679926Y-15461524D01*
X10679926Y-15461524D02*
X10660878Y-15452000D01*
X10660878Y-15452000D02*
X10632307Y-15452000D01*
X10632307Y-15452000D02*
X10613259Y-15442476D01*
X10613259Y-15442476D02*
X10603735Y-15423429D01*
X10603735Y-15423429D02*
X10603735Y-15413905D01*
X10603735Y-15413905D02*
X10613259Y-15394857D01*
X10613259Y-15394857D02*
X10632307Y-15385334D01*
X10632307Y-15385334D02*
X10660878Y-15385334D01*
X10660878Y-15385334D02*
X10679926Y-15394857D01*
X10756116Y-15594857D02*
X10765640Y-15585334D01*
X10765640Y-15585334D02*
X10784688Y-15556762D01*
X10784688Y-15556762D02*
X10794212Y-15537715D01*
X10794212Y-15537715D02*
X10803735Y-15509143D01*
X10803735Y-15509143D02*
X10813259Y-15461524D01*
X10813259Y-15461524D02*
X10813259Y-15423429D01*
X10813259Y-15423429D02*
X10803735Y-15375810D01*
X10803735Y-15375810D02*
X10794212Y-15347238D01*
X10794212Y-15347238D02*
X10784688Y-15328191D01*
X10784688Y-15328191D02*
X10765640Y-15299619D01*
X10765640Y-15299619D02*
X10756116Y-15290095D01*
X11118021Y-15594857D02*
X11108497Y-15585334D01*
X11108497Y-15585334D02*
X11089450Y-15556762D01*
X11089450Y-15556762D02*
X11079926Y-15537715D01*
X11079926Y-15537715D02*
X11070402Y-15509143D01*
X11070402Y-15509143D02*
X11060878Y-15461524D01*
X11060878Y-15461524D02*
X11060878Y-15423429D01*
X11060878Y-15423429D02*
X11070402Y-15375810D01*
X11070402Y-15375810D02*
X11079926Y-15347238D01*
X11079926Y-15347238D02*
X11089450Y-15328191D01*
X11089450Y-15328191D02*
X11108497Y-15299619D01*
X11108497Y-15299619D02*
X11118021Y-15290095D01*
X11194212Y-15385334D02*
X11194212Y-15518667D01*
X11194212Y-15404381D02*
X11203735Y-15394857D01*
X11203735Y-15394857D02*
X11222783Y-15385334D01*
X11222783Y-15385334D02*
X11251354Y-15385334D01*
X11251354Y-15385334D02*
X11270402Y-15394857D01*
X11270402Y-15394857D02*
X11279926Y-15413905D01*
X11279926Y-15413905D02*
X11279926Y-15518667D01*
X11403735Y-15518667D02*
X11384688Y-15509143D01*
X11384688Y-15509143D02*
X11375164Y-15499619D01*
X11375164Y-15499619D02*
X11365640Y-15480572D01*
X11365640Y-15480572D02*
X11365640Y-15423429D01*
X11365640Y-15423429D02*
X11375164Y-15404381D01*
X11375164Y-15404381D02*
X11384688Y-15394857D01*
X11384688Y-15394857D02*
X11403735Y-15385334D01*
X11403735Y-15385334D02*
X11432307Y-15385334D01*
X11432307Y-15385334D02*
X11451354Y-15394857D01*
X11451354Y-15394857D02*
X11460878Y-15404381D01*
X11460878Y-15404381D02*
X11470402Y-15423429D01*
X11470402Y-15423429D02*
X11470402Y-15480572D01*
X11470402Y-15480572D02*
X11460878Y-15499619D01*
X11460878Y-15499619D02*
X11451354Y-15509143D01*
X11451354Y-15509143D02*
X11432307Y-15518667D01*
X11432307Y-15518667D02*
X11403735Y-15518667D01*
X11527545Y-15385334D02*
X11603735Y-15385334D01*
X11556116Y-15318667D02*
X11556116Y-15490095D01*
X11556116Y-15490095D02*
X11565640Y-15509143D01*
X11565640Y-15509143D02*
X11584688Y-15518667D01*
X11584688Y-15518667D02*
X11603735Y-15518667D01*
X11822783Y-15385334D02*
X11822783Y-15585334D01*
X11822783Y-15394857D02*
X11841831Y-15385334D01*
X11841831Y-15385334D02*
X11879926Y-15385334D01*
X11879926Y-15385334D02*
X11898974Y-15394857D01*
X11898974Y-15394857D02*
X11908497Y-15404381D01*
X11908497Y-15404381D02*
X11918021Y-15423429D01*
X11918021Y-15423429D02*
X11918021Y-15480572D01*
X11918021Y-15480572D02*
X11908497Y-15499619D01*
X11908497Y-15499619D02*
X11898974Y-15509143D01*
X11898974Y-15509143D02*
X11879926Y-15518667D01*
X11879926Y-15518667D02*
X11841831Y-15518667D01*
X11841831Y-15518667D02*
X11822783Y-15509143D01*
X12032307Y-15518667D02*
X12013259Y-15509143D01*
X12013259Y-15509143D02*
X12003735Y-15490095D01*
X12003735Y-15490095D02*
X12003735Y-15318667D01*
X12194212Y-15518667D02*
X12194212Y-15413905D01*
X12194212Y-15413905D02*
X12184688Y-15394857D01*
X12184688Y-15394857D02*
X12165640Y-15385334D01*
X12165640Y-15385334D02*
X12127545Y-15385334D01*
X12127545Y-15385334D02*
X12108497Y-15394857D01*
X12194212Y-15509143D02*
X12175164Y-15518667D01*
X12175164Y-15518667D02*
X12127545Y-15518667D01*
X12127545Y-15518667D02*
X12108497Y-15509143D01*
X12108497Y-15509143D02*
X12098974Y-15490095D01*
X12098974Y-15490095D02*
X12098974Y-15471048D01*
X12098974Y-15471048D02*
X12108497Y-15452000D01*
X12108497Y-15452000D02*
X12127545Y-15442476D01*
X12127545Y-15442476D02*
X12175164Y-15442476D01*
X12175164Y-15442476D02*
X12194212Y-15432953D01*
X12260878Y-15385334D02*
X12337069Y-15385334D01*
X12289450Y-15318667D02*
X12289450Y-15490095D01*
X12289450Y-15490095D02*
X12298974Y-15509143D01*
X12298974Y-15509143D02*
X12318021Y-15518667D01*
X12318021Y-15518667D02*
X12337069Y-15518667D01*
X12479926Y-15509143D02*
X12460878Y-15518667D01*
X12460878Y-15518667D02*
X12422783Y-15518667D01*
X12422783Y-15518667D02*
X12403735Y-15509143D01*
X12403735Y-15509143D02*
X12394212Y-15490095D01*
X12394212Y-15490095D02*
X12394212Y-15413905D01*
X12394212Y-15413905D02*
X12403735Y-15394857D01*
X12403735Y-15394857D02*
X12422783Y-15385334D01*
X12422783Y-15385334D02*
X12460878Y-15385334D01*
X12460878Y-15385334D02*
X12479926Y-15394857D01*
X12479926Y-15394857D02*
X12489450Y-15413905D01*
X12489450Y-15413905D02*
X12489450Y-15432953D01*
X12489450Y-15432953D02*
X12394212Y-15452000D01*
X12660878Y-15518667D02*
X12660878Y-15318667D01*
X12660878Y-15509143D02*
X12641831Y-15518667D01*
X12641831Y-15518667D02*
X12603735Y-15518667D01*
X12603735Y-15518667D02*
X12584688Y-15509143D01*
X12584688Y-15509143D02*
X12575164Y-15499619D01*
X12575164Y-15499619D02*
X12565640Y-15480572D01*
X12565640Y-15480572D02*
X12565640Y-15423429D01*
X12565640Y-15423429D02*
X12575164Y-15404381D01*
X12575164Y-15404381D02*
X12584688Y-15394857D01*
X12584688Y-15394857D02*
X12603735Y-15385334D01*
X12603735Y-15385334D02*
X12641831Y-15385334D01*
X12641831Y-15385334D02*
X12660878Y-15394857D01*
X12737069Y-15594857D02*
X12746593Y-15585334D01*
X12746593Y-15585334D02*
X12765640Y-15556762D01*
X12765640Y-15556762D02*
X12775164Y-15537715D01*
X12775164Y-15537715D02*
X12784688Y-15509143D01*
X12784688Y-15509143D02*
X12794212Y-15461524D01*
X12794212Y-15461524D02*
X12794212Y-15423429D01*
X12794212Y-15423429D02*
X12784688Y-15375810D01*
X12784688Y-15375810D02*
X12775164Y-15347238D01*
X12775164Y-15347238D02*
X12765640Y-15328191D01*
X12765640Y-15328191D02*
X12746593Y-15299619D01*
X12746593Y-15299619D02*
X12737069Y-15290095D01*
M02*
