%TF.GenerationSoftware,KiCad,Pcbnew,9.0.6*%
%TF.CreationDate,2025-11-29T13:29:23+01:00*%
%TF.ProjectId,AMN_230V_pcb,414d4e5f-3233-4305-965f-7063622e6b69,rev?*%
%TF.SameCoordinates,Original*%
%TF.FileFunction,Profile,NP*%
%FSLAX46Y46*%
G04 Gerber Fmt 4.6, Leading zero omitted, Abs format (unit mm)*
G04 Created by KiCad (PCBNEW 9.0.6) date 2025-11-29 13:29:23*
%MOMM*%
%LPD*%
G01*
G04 APERTURE LIST*
%TA.AperFunction,Profile*%
%ADD10C,0.050000*%
%TD*%
G04 APERTURE END LIST*
D10*
X143335534Y-75564466D02*
G75*
G02*
X138335534Y-70564466I-34J4999966D01*
G01*
X59835534Y-80535534D02*
G75*
G02*
X64835534Y-75535534I4999996J4D01*
G01*
X79335534Y-54850000D02*
X133364466Y-54855534D01*
X147764500Y-75535534D02*
X143335534Y-75564466D01*
X74214466Y-70564466D02*
G75*
G02*
X69214466Y-75564466I-4999996J-4D01*
G01*
X74414465Y-132435534D02*
X74385534Y-142834466D01*
X148296833Y-127346832D02*
X143235534Y-127350035D01*
X138335535Y-70564466D02*
X138364466Y-59855500D01*
X133846833Y-147846832D02*
X79385500Y-147834466D01*
X147764466Y-75535534D02*
G75*
G02*
X152764466Y-80535534I34J-4999966D01*
G01*
X138235534Y-132350000D02*
X138346833Y-143346833D01*
X133364466Y-54855534D02*
G75*
G02*
X138364466Y-59855534I34J-4999966D01*
G01*
X152796833Y-122846823D02*
X152764466Y-80535534D01*
X138346833Y-143346833D02*
G75*
G02*
X133846833Y-147846833I-5000033J500033D01*
G01*
X74214466Y-70564470D02*
X74335534Y-59850000D01*
X64835534Y-127414466D02*
G75*
G02*
X59835534Y-122414466I-34J4999966D01*
G01*
X64835530Y-75535534D02*
X69214466Y-75564466D01*
X59835535Y-122414466D02*
X59835534Y-80535534D01*
X74335534Y-59850000D02*
G75*
G02*
X79335534Y-54850034I4999966J0D01*
G01*
X69414500Y-127435534D02*
X64835534Y-127414466D01*
X138235534Y-132350000D02*
G75*
G02*
X143235534Y-127350034I4999966J0D01*
G01*
X152796833Y-122846833D02*
G75*
G02*
X148296833Y-127346833I-5000033J500033D01*
G01*
X79385534Y-147834466D02*
G75*
G02*
X74385534Y-142834466I-34J4999966D01*
G01*
X69414466Y-127435534D02*
G75*
G02*
X74414466Y-132435534I34J-4999966D01*
G01*
M02*
