%TF.GenerationSoftware,KiCad,Pcbnew,9.0.6*%
%TF.CreationDate,2025-11-29T13:29:29+01:00*%
%TF.ProjectId,AMN_230V_pcb,414d4e5f-3233-4305-965f-7063622e6b69,rev?*%
%TF.SameCoordinates,Original*%
%TF.FileFunction,Plated,1,2,PTH,Drill*%
%TF.FilePolarity,Positive*%
%FSLAX46Y46*%
G04 Gerber Fmt 4.6, Leading zero omitted, Abs format (unit mm)*
G04 Created by KiCad (PCBNEW 9.0.6) date 2025-11-29 13:29:29*
%MOMM*%
%LPD*%
G01*
G04 APERTURE LIST*
%TA.AperFunction,ViaDrill*%
%ADD10C,0.300000*%
%TD*%
%TA.AperFunction,ViaDrill*%
%ADD11C,0.500000*%
%TD*%
%TA.AperFunction,ViaDrill*%
%ADD12C,0.600000*%
%TD*%
%TA.AperFunction,ComponentDrill*%
%ADD13C,0.800000*%
%TD*%
%TA.AperFunction,ComponentDrill*%
%ADD14C,0.950000*%
%TD*%
%TA.AperFunction,ComponentDrill*%
%ADD15C,1.000000*%
%TD*%
%TA.AperFunction,ComponentDrill*%
%ADD16C,1.150000*%
%TD*%
%TA.AperFunction,ComponentDrill*%
%ADD17C,1.200000*%
%TD*%
%TA.AperFunction,ComponentDrill*%
%ADD18C,1.400000*%
%TD*%
G04 APERTURE END LIST*
D10*
X86700000Y-81400000D03*
X123950000Y-65000000D03*
X128000000Y-61800000D03*
D11*
X98450000Y-56550000D03*
X134000000Y-78550000D03*
X134700000Y-84650000D03*
D12*
X139550000Y-80650000D03*
D13*
%TO.C,V3*%
X101100000Y-126700000D03*
X102500000Y-119200000D03*
%TO.C,V1*%
X108050000Y-126250000D03*
X115550000Y-127650000D03*
%TO.C,V2*%
X125200000Y-126200000D03*
X132700000Y-127600000D03*
D14*
%TO.C,K3*%
X79922500Y-66997500D03*
X79922500Y-69537500D03*
%TO.C,K1*%
X137872500Y-92470000D03*
X137872500Y-95010000D03*
%TO.C,K2*%
X149150000Y-92470000D03*
X149150000Y-95010000D03*
D15*
%TO.C,T1*%
X100650000Y-103850000D03*
X105650000Y-83850000D03*
%TO.C,F1*%
X109160000Y-117550000D03*
X114240000Y-117550000D03*
%TO.C,T1*%
X115650000Y-83850000D03*
%TO.C,F2*%
X120310000Y-117650000D03*
%TO.C,T1*%
X120650000Y-103850000D03*
%TO.C,F2*%
X125390000Y-117650000D03*
%TO.C,J5*%
X130310000Y-61850000D03*
X130310000Y-64390000D03*
X130310000Y-66930000D03*
X130310000Y-69470000D03*
X132850000Y-61850000D03*
X132850000Y-64390000D03*
X132850000Y-66930000D03*
X132850000Y-69470000D03*
D16*
%TO.C,K3*%
X79922500Y-77157500D03*
X79922500Y-84777500D03*
%TO.C,K1*%
X137872500Y-102630000D03*
X137872500Y-110250000D03*
%TO.C,K2*%
X149150000Y-102630000D03*
X149150000Y-110250000D03*
D17*
%TO.C,J6*%
X64300000Y-106950000D03*
%TO.C,J4*%
X64450000Y-93650000D03*
%TO.C,J6*%
X67800000Y-106950000D03*
%TO.C,J4*%
X67950000Y-93650000D03*
%TO.C,J6*%
X71300000Y-106950000D03*
%TO.C,J4*%
X71450000Y-93650000D03*
%TO.C,J6*%
X74800000Y-106950000D03*
%TO.C,J4*%
X74950000Y-93650000D03*
D18*
%TO.C,J1*%
X80090000Y-137050000D03*
X85170000Y-137050000D03*
X90250000Y-137050000D03*
%TO.C,J2*%
X101390000Y-137000000D03*
X106470000Y-137000000D03*
X111550000Y-137000000D03*
%TO.C,J3*%
X122590000Y-137000000D03*
X127670000Y-137000000D03*
X132750000Y-137000000D03*
M02*
